<svg width="124" height="36" viewBox="0 0 124 36" fill="none" xmlns="http://www.w3.org/2000/svg">
<path d="M52.7299 11.4337C52.0363 11.8643 51.8814 12.9513 51.8814 14.8241V27.4535H50.8039L39.4265 13.3317V22.1902C39.4265 24.2909 39.734 25.2023 40.3004 25.658C40.7373 26.0133 42.483 26.4167 42.9454 26.4418V27.2779H34.985V26.4418C35.4474 26.4167 37.0912 25.9861 37.3733 25.7834C37.9905 25.3528 38.2217 24.4414 38.2217 22.3156V13.9128C38.2217 13.1791 37.9142 12.3179 37.3987 11.9124C36.7815 11.4316 35.3434 10.8485 34.6498 10.8234V9.98727H40.0692L50.6745 23.1475V14.9725C50.6745 12.9471 50.367 11.9103 49.8007 11.555C49.3128 11.2519 47.7708 10.8464 47.1811 10.8213V9.98518H55.0906V10.8213C54.6282 10.8464 53.1392 11.1766 52.7277 11.4295L52.7299 11.4337Z" fill="#1EC17A"/>
<path d="M60.8705 27.6312C57.7886 27.6312 55.0673 25.2775 55.0673 21.4816C55.0673 17.6857 57.4556 15.2547 61.0508 15.2547C64.646 15.2547 66.9071 17.8613 66.9071 21.3039C66.9071 24.7466 64.75 27.6312 60.8727 27.6312H60.8705ZM61.0254 16.1159C58.3549 16.1159 57.6614 18.9252 57.6614 21.2789C57.6614 24.2157 58.6116 26.77 61.0254 26.77C63.3119 26.77 64.313 24.2888 64.313 21.329C64.313 18.7475 63.5176 16.1159 61.0254 16.1159Z" fill="#1EC17A"/>
<path d="M73.353 27.5308C71.2468 27.5308 70.2202 26.3164 70.2202 24.0631V16.7743H67.8319V15.6352H70.2711V11.9647H72.5046V15.6352H75.9726V16.7743H72.5322V23.7349C72.5322 25.1772 72.9437 26.0635 74.3563 26.0635C75.4614 26.0635 75.665 25.1019 75.7689 24.1404H76.6428C76.4625 26.0133 75.4105 27.5308 73.3552 27.5308H73.353Z" fill="#1EC17A"/>
<path d="M77.6164 27.2779V26.4941C78.0788 26.469 78.3863 26.4439 78.7469 26.3415C79.2348 26.1889 79.4405 25.7855 79.4405 25.2274V18.1414C79.3896 17.6104 79.1584 17.1548 78.7469 16.8768C78.4394 16.674 77.6949 16.4963 77.2325 16.4713V15.7125L81.5976 15.4345L81.7779 15.6122V25.0769C81.7779 25.6329 82.0091 26.0384 82.4715 26.2161C82.8576 26.3686 83.1397 26.469 83.6021 26.4941V27.2779H77.6164ZM80.3908 12.2698C79.5423 12.2698 78.8233 11.5612 78.8233 10.7251C78.8233 9.88903 79.5423 9.13026 80.3908 9.13026C81.341 9.13026 82.0091 9.81378 82.0091 10.6227C82.0091 11.509 81.3156 12.2677 80.3908 12.2677V12.2698Z" fill="#1EC17A"/>
<path d="M92.589 27.2779V26.4941C93.0514 26.469 93.2826 26.4439 93.6411 26.3415C94.1289 26.1889 94.3347 25.7855 94.3347 25.2274V17.8111C94.2838 17.3053 94.2053 16.9499 93.9741 16.5967H89.2483V25.0999C89.2483 25.6559 89.4796 26.0363 89.9419 26.214C90.328 26.3666 90.7649 26.4669 91.2252 26.492V27.2758H85.0868V26.492C85.5492 26.4669 85.8568 26.4418 86.2173 26.3394C86.7052 26.1868 86.9109 25.7834 86.9109 25.2253V16.6719H84.3423V15.6352H86.9109V15.1042C86.9109 12.9784 87.6045 11.3083 88.8369 9.99145C89.5814 9.2076 90.994 8.3715 92.6124 8.3715C95.7961 8.3715 96.6191 9.61102 96.6191 11.0533C96.6191 11.5842 96.2606 12.4956 95.2574 12.4956C94.7186 12.4956 93.8193 12.2176 93.8193 11.3564C93.8193 10.4952 94.1523 10.2423 94.2308 10.0395C94.2053 9.81168 93.9487 9.23059 92.4597 9.23059C90.8922 9.23059 89.2505 10.445 89.2505 14.3434V15.6331H93.3844L96.4918 15.4303L96.6721 15.608V25.0727C96.6721 25.6287 96.9033 26.0342 97.3657 26.2119C97.7517 26.3645 98.0338 26.4648 98.4962 26.4899V27.2737H92.589V27.2779Z" fill="#1EC17A"/>
<path d="M104.378 27.6312C103.12 27.6312 101.758 27.048 101.321 26.5944L101.065 27.4033H100.191L100.062 23.3043H100.885C101.167 24.5689 102.424 26.747 104.48 26.747C106.278 26.747 106.894 25.9882 106.894 24.7215C106.894 23.3545 105.918 22.8737 103.916 22.2926C102.272 21.8119 100.371 20.8754 100.371 18.6472C100.371 16.7242 101.886 15.2568 104.274 15.2568C105.275 15.2568 106.304 15.4847 106.944 15.9403L107.15 15.2317H107.973L108.153 18.9022H107.33C107.074 17.4349 106.073 16.1431 104.249 16.1431C102.912 16.1431 102.219 16.8266 102.219 17.7881C102.219 19.2053 103.118 19.5084 105.197 20.1919C107.303 20.8754 108.741 21.837 108.741 23.9377C108.741 26.2411 106.79 27.6332 104.376 27.6332L104.378 27.6312Z" fill="#1EC17A"/>
<path d="M117.936 27.2779V26.4941C118.398 26.469 118.784 26.4439 119.143 26.3415C119.631 26.1889 119.836 25.7855 119.836 25.2274V19.3809C119.836 17.6355 118.81 16.6719 117.705 16.6719C115.83 16.6719 114.778 17.8864 114.495 18.4695V25.0999C114.495 25.6559 114.727 26.0112 115.189 26.214C115.575 26.3916 115.934 26.4669 116.396 26.492V27.2758H110.336V26.492C110.798 26.4669 111.106 26.4418 111.467 26.3394C111.954 26.1868 112.16 25.7834 112.16 25.2253V11.231C112.109 10.7 111.878 10.0416 111.467 9.76361C111.159 9.56085 110.209 9.46052 109.746 9.43544V8.67667L114.317 8.39867L114.498 8.57634V17.3324H114.549C115.524 16.396 116.551 15.2568 118.761 15.2568C121.149 15.2568 122.201 16.8517 122.201 19.2555V25.127C122.201 25.683 122.407 26.0384 122.869 26.2411C123.23 26.3937 123.538 26.469 124 26.4941V27.2779H117.936Z" fill="#1EC17A"/>
<path d="M7.30073 0.00418052C7.75464 0.179762 9.82905 1.00333 10.9553 2.20523C11.3159 2.59192 11.6871 3.07895 11.6871 3.07895C11.8335 3.3047 11.9289 3.50119 12.0265 3.6914C13.6512 7.18423 20.3432 5.62698 21.321 5.26328C23.7284 4.57558 29.6886 1.21862 31.6294 0.0752494C30.0471 1.15382 28.7893 1.9962 28.013 2.51249C26.9249 3.23781 24.8462 4.61321 22.704 6.71392C22.1122 7.29501 21.3443 8.09558 21.5437 8.41957C21.6964 8.66831 22.32 8.46974 23.2554 8.44674C24.369 8.41957 25.2789 8.65786 25.8813 8.86898C24.4432 8.87734 23.546 9.28703 22.9797 9.68418C21.7558 10.5433 20.095 12.7297 19.7154 12.6294C19.7154 12.6294 19.3887 12.5437 19.1087 12.5457C18.7821 12.5478 18.3261 12.0295 18.3261 12.0295C18.1458 11.8246 17.8531 11.5696 17.3546 11.3543C18.0079 11.44 18.7906 11.3209 19.3272 10.7209C19.7196 10.397 20.165 10.2026 21.2171 9.80541C20.7483 9.01739 19.6857 9.00902 19.3145 9.09264C19.5669 8.63905 19.902 8.11857 20.3411 7.57929C20.9074 6.88741 21.4865 6.36275 21.9785 5.97815C20.4832 6.26869 18.4576 6.54252 16.9834 6.61777C14.8348 6.739 13.4073 6.73273 12.9767 6.74736C11.4962 6.79753 9.30726 7.79458 6.2911 12.1361C5.51267 12.2573 4.35668 12.644 3.67582 13.0077C3.8349 12.2636 4.13397 11.1515 4.72575 9.89111C5.72902 7.75069 6.43321 7.63154 7.17983 5.65834C8.1831 2.81767 7.82251 1.38793 7.30073 0V0.00418052Z" fill="#1EC17A"/>
<path d="M9.74421 18.0431C10.1854 18.99 11.0784 20.5703 12.7582 22.0125C14.7733 23.7391 16.8752 24.3662 17.9464 24.6107C18.2243 24.1801 18.6633 23.4757 19.1639 22.5853C21.1704 18.9754 20.9838 18.1058 23.9596 15.5097C21.7028 18.944 20.6338 22.9343 21.1747 26.3666C21.4143 27.744 21.9022 28.7453 22.8694 30.6871C24.5429 34.0504 25.9259 35.8229 25.7116 35.988C25.5271 36.1302 24.3075 34.9826 23.3509 33.8622C21.8979 32.1587 21.6689 31.2369 20.2668 29.3222C19.7875 28.6679 19.0515 27.7336 18.0228 26.6843C13.0085 27.6897 8.06432 26.1157 5.3451 22.5769C3.4722 20.1397 3.18373 17.462 3.15403 16.0762C3.14979 15.9152 3.24948 15.771 3.40008 15.7083C3.63764 15.6122 3.91338 15.516 4.22093 15.4366C4.64091 15.33 5.02058 15.2777 5.33662 15.2568C3.98549 19.8282 6.00264 24.2575 11.6553 25.635C14.5506 26.5108 17.0471 26.1157 18.2518 25.8419C17.5095 25.7457 13.367 25.1333 11.0678 21.6028C10.2087 20.2818 9.87783 18.9712 9.74421 18.0431Z" fill="#1EC17A"/>
<path d="M0 16.0511C3.171 14.3266 8.02402 13.5282 11.5514 14.1197C11.6023 13.9337 11.7041 13.6578 11.931 13.4069C12.1643 13.1519 12.3828 13.0809 12.807 12.8238C13.3776 12.4768 13.683 12.2907 13.6639 12.1883C13.5833 11.7535 7.47254 11.3647 2.21228 14.4813C1.16235 15.1042 0.396641 15.7167 0 16.0511Z" fill="#1EC17A"/>
<path d="M7.57647 26.2976L7.56374 26.308C6.78531 26.9017 6.44806 28.3063 6.24868 29.1445C6.1299 29.642 6.0896 29.7904 6.00263 29.7904C5.99839 29.7904 5.99203 29.7904 5.98779 29.7904C5.94112 29.782 5.92203 29.7486 5.92203 29.6608C5.92203 29.573 5.94324 29.4183 5.97718 29.1759C6.05566 28.6115 6.18717 27.6667 6.16596 26.4543V26.3206C6.14899 25.5785 6.13626 24.8783 6.43745 24.7863C6.53078 24.757 6.59441 24.7989 6.7641 24.9138C6.85955 24.9786 6.99318 25.0664 7.19044 25.1856C7.33043 25.2692 7.44496 25.334 7.54041 25.3862C7.80342 25.5325 7.92433 25.5994 7.94766 25.7457C7.98796 25.9945 7.68889 26.2181 7.57859 26.3038L7.57647 26.2976Z" fill="#1EC17A"/>
<path d="M16.8349 22.418H16.8307C16.6822 22.4849 16.4489 22.7588 16.415 22.9469L16.4447 23.2395C16.4532 23.3273 16.4213 23.4109 16.3535 23.4715C16.3026 23.5175 16.2368 23.5426 16.1689 23.5426C16.152 23.5426 16.135 23.5426 16.118 23.5384C15.9038 23.4987 15.7044 23.4235 15.522 23.3127C15.2738 23.1622 14.9493 22.9364 14.9854 22.7253C15.0129 22.5665 15.2314 22.347 16.7946 22.2885C16.8265 22.2885 16.8562 22.3094 16.8668 22.3386C16.8752 22.37 16.8625 22.4034 16.8328 22.418H16.8349Z" fill="#1EC17A"/>
<path d="M15.4732 27.7545C15.4647 27.8005 15.4202 27.8151 15.3799 27.8297C15.3375 27.8444 15.2844 27.8611 15.2399 27.9133C15.1932 27.9698 15.1848 28.0304 15.1784 28.0638C15.1529 28.2373 15.2335 28.4234 15.2929 28.5571C15.3438 28.6763 15.3799 28.7536 15.329 28.8038C15.3141 28.8163 15.2951 28.8247 15.2717 28.8247C15.0596 28.8247 14.4954 28.3209 14.3724 28.2123C14.05 27.9196 13.8548 27.7419 13.9142 27.581C13.9588 27.4598 14.1327 27.4012 14.4424 27.4012C14.5018 27.4012 14.5654 27.4033 14.6354 27.4075C15.0045 27.4305 15.3608 27.5705 15.4499 27.6813C15.469 27.7064 15.4775 27.7315 15.4732 27.7545Z" fill="#1EC17A"/>
<path d="M19.289 7.34727C19.2784 7.6629 19.0387 7.80713 18.8203 7.80713C18.6018 7.80713 18.3621 7.66499 18.3536 7.35145V7.34727C18.3642 7.03582 18.6018 6.89159 18.8203 6.89159C18.9284 6.89159 19.043 6.92712 19.1321 7.00237C19.2212 7.07762 19.2848 7.1905 19.289 7.34727Z" fill="#1EC17A"/>
<path d="M12.631 9.19088C12.6183 9.28285 12.6098 9.37691 12.6077 9.47306C12.578 9.38109 12.5525 9.28912 12.5313 9.19506C12.5419 9.10936 12.5567 9.02575 12.578 8.94423C12.578 8.93796 12.5801 8.93168 12.5822 8.9275C12.5822 8.93377 12.5822 8.94005 12.5843 8.94632C12.5949 9.02784 12.6098 9.10936 12.6289 9.19088H12.631Z" fill="#1EC17A"/>
<path d="M13.5664 11.6344L13.5303 11.6156C13.5303 11.6156 13.5452 11.6198 13.5537 11.6219C13.5579 11.626 13.5643 11.6302 13.5685 11.6344H13.5664Z" fill="#1EC17A"/>
<path d="M19.2021 15.1147L19.1512 15.1753C19.0918 15.1126 19.0324 15.0499 18.9709 14.9893C19.0494 15.029 19.1257 15.0708 19.2021 15.1147Z" fill="#1EC17A"/>
<path d="M19.2572 15.0478L19.2042 15.1105C19.1512 15.0499 19.0939 14.9893 19.0345 14.9286C19.1087 14.9663 19.183 15.0081 19.2572 15.0478Z" fill="#1EC17A"/>
<path d="M20.375 16.3019C20.375 16.3019 20.3623 16.2915 20.3559 16.2894C20.3177 16.2601 20.2774 16.2309 20.2393 16.2037C20.2159 16.1494 20.1905 16.0971 20.165 16.0448C20.2117 16.0783 20.2605 16.1138 20.3071 16.1473C20.3284 16.1933 20.3474 16.2371 20.3665 16.2831C20.3687 16.2894 20.3729 16.2957 20.375 16.304V16.3019Z" fill="#1EC17A"/>
<path d="M12.5822 8.9275C12.5822 8.9275 12.5801 8.94005 12.578 8.94423H12.5843C12.5843 8.94423 12.5843 8.93168 12.5822 8.9275ZM13.9821 11.1933C13.9821 11.1933 13.963 11.1892 13.9545 11.1871L13.9991 11.2059C13.9991 11.2059 13.9885 11.1975 13.9842 11.1933H13.9821ZM18.9709 14.9872C19.0324 15.0478 19.0918 15.1105 19.1512 15.1732L19.2021 15.1126C19.1257 15.0687 19.0494 15.0269 18.9709 14.9872ZM19.0345 14.9286C19.0939 14.9893 19.1512 15.0499 19.2042 15.1105L19.2572 15.0478C19.183 15.006 19.1087 14.9663 19.0345 14.9286ZM20.3665 16.281L20.3559 16.2873C20.3559 16.2873 20.3687 16.2957 20.375 16.2999C20.3729 16.2936 20.3687 16.2873 20.3665 16.279V16.281Z" fill="#1EC17A"/>
<path d="M20.5744 16.5549L20.3241 16.3667C17.2867 14.034 12.5822 13.8396 9.77178 16.6301C8.12795 18.2522 7.45557 20.6455 7.59132 22.8988C7.59132 22.9051 7.59132 22.9093 7.59132 22.9155C6.62199 19.8073 7.42799 16.6949 10.3784 14.9976C12.9088 13.5512 16.1668 13.5386 18.7779 14.8011C17.7088 13.7644 16.4192 12.9513 15.0596 12.3409C14.5421 12.1131 14.0076 11.9228 13.4603 11.7912C12.6225 11.1076 12.2428 9.94964 12.4846 8.9066L12.6013 8.4133L12.6713 8.91705C12.8092 9.78451 13.2885 10.6311 13.9757 11.1933C16.8901 11.7368 19.4927 13.825 20.568 16.557L20.5744 16.5549Z" fill="#1EC17A"/>
</svg>
