<svg width="32" height="32" viewBox="0 0 32 32" fill="none" xmlns="http://www.w3.org/2000/svg">
<path d="M22.6666 21.3334H9.33329V20.0001L10.6666 18.6667V15.1867C10.6666 13.7334 11.0266 12.4534 11.72 11.3734C12.4 10.2934 13.3866 9.61341 14.6666 9.33341V8.66675C14.6666 8.31313 14.8071 7.97399 15.0571 7.72394C15.3072 7.47389 15.6463 7.33341 16 7.33341C16.3536 7.33341 16.6927 7.47389 16.9428 7.72394C17.1928 7.97399 17.3333 8.31313 17.3333 8.66675V9.33341C18.6133 9.61341 19.6 10.2934 20.28 11.3734C20.9733 12.4534 21.3333 13.7334 21.3333 15.1867V18.6667L22.6666 20.0001V21.3334ZM18 22.6667C18 23.1972 17.7892 23.7059 17.4142 24.081C17.0391 24.456 16.5304 24.6667 16 24.6667C15.4695 24.6667 14.9608 24.456 14.5857 24.081C14.2107 23.7059 14 23.1972 14 22.6667H18ZM16 2.66675C17.7509 2.66675 19.4847 3.01162 21.1024 3.68169C22.7201 4.35175 24.1899 5.33388 25.428 6.57199C26.6662 7.81011 27.6483 9.27996 28.3184 10.8976C28.9884 12.5153 29.3333 14.2491 29.3333 16.0001C29.3333 19.5363 27.9285 22.9277 25.428 25.4282C22.9276 27.9287 19.5362 29.3334 16 29.3334C14.249 29.3334 12.5152 28.9885 10.8975 28.3185C9.27984 27.6484 7.80998 26.6663 6.57187 25.4282C4.07138 22.9277 2.66663 19.5363 2.66663 16.0001C2.66663 12.4639 4.07138 9.07248 6.57187 6.57199C9.07235 4.07151 12.4637 2.66675 16 2.66675ZM16 5.33341C13.171 5.33341 10.4579 6.45722 8.45749 8.45761C6.4571 10.458 5.33329 13.1711 5.33329 16.0001C5.33329 18.8291 6.4571 21.5422 8.45749 23.5426C10.4579 25.5429 13.171 26.6667 16 26.6667C18.8289 26.6667 21.542 25.5429 23.5424 23.5426C25.5428 21.5422 26.6666 18.8291 26.6666 16.0001C26.6666 13.1711 25.5428 10.458 23.5424 8.45761C21.542 6.45722 18.8289 5.33341 16 5.33341Z" fill="#1EC17A"/>
</svg>
