<svg width="32" height="32" viewBox="0 0 32 32" fill="none" xmlns="http://www.w3.org/2000/svg">
<path d="M29.3333 7.33325H12C10.5333 7.33325 9.33333 8.53325 9.33333 9.99992V21.9999C9.33333 23.4799 10.5333 24.6666 12 24.6666H29.3333C30.8133 24.6666 32 23.4799 32 21.9999V9.99992C32 8.53325 30.8133 7.33325 29.3333 7.33325ZM29.3333 21.9999H12V12.2266L20.6667 16.6666L29.3333 12.2266V21.9999ZM20.6667 14.4133L12 9.99992H29.3333L20.6667 14.4133ZM6.66667 21.9999C6.66667 22.2266 6.70667 22.4399 6.73333 22.6666H1.33333C0.597333 22.6666 0 22.0666 0 21.3333C0 20.5999 0.597333 19.9999 1.33333 19.9999H6.66667V21.9999ZM4 9.33325H6.73333C6.70667 9.55992 6.66667 9.77325 6.66667 9.99992V11.9999H4C3.26667 11.9999 2.66667 11.3999 2.66667 10.6666C2.66667 9.93325 3.26667 9.33325 4 9.33325ZM1.33333 15.9999C1.33333 15.2666 1.93333 14.6666 2.66667 14.6666H6.66667V17.3333H2.66667C1.93333 17.3333 1.33333 16.7333 1.33333 15.9999Z" fill="#1EC17A"/>
</svg>
