<svg width="32" height="32" viewBox="0 0 32 32" fill="none" xmlns="http://www.w3.org/2000/svg">
<path d="M28 25.3333V22.6666H10.6667V25.3333H28ZM28 17.3333V14.6666H10.6667V17.3333H28ZM10.6667 9.33325H28V6.66659H10.6667V9.33325ZM5.33333 6.66659V9.33325H8V6.66659H5.33333ZM4 6.66659C4 6.31296 4.14048 5.97383 4.39052 5.72378C4.64057 5.47373 4.97971 5.33325 5.33333 5.33325H8C8.35362 5.33325 8.69276 5.47373 8.94281 5.72378C9.19286 5.97383 9.33333 6.31296 9.33333 6.66659V9.33325C9.33333 9.68687 9.19286 10.026 8.94281 10.2761C8.69276 10.5261 8.35362 10.6666 8 10.6666H5.33333C4.97971 10.6666 4.64057 10.5261 4.39052 10.2761C4.14048 10.026 4 9.68687 4 9.33325V6.66659ZM5.33333 14.6666V17.3333H8V14.6666H5.33333ZM4 14.6666C4 14.313 4.14048 13.9738 4.39052 13.7238C4.64057 13.4737 4.97971 13.3333 5.33333 13.3333H8C8.35362 13.3333 8.69276 13.4737 8.94281 13.7238C9.19286 13.9738 9.33333 14.313 9.33333 14.6666V17.3333C9.33333 17.6869 9.19286 18.026 8.94281 18.2761C8.69276 18.5261 8.35362 18.6666 8 18.6666H5.33333C4.97971 18.6666 4.64057 18.5261 4.39052 18.2761C4.14048 18.026 4 17.6869 4 17.3333V14.6666ZM5.33333 22.6666V25.3333H8V22.6666H5.33333ZM4 22.6666C4 22.313 4.14048 21.9738 4.39052 21.7238C4.64057 21.4737 4.97971 21.3333 5.33333 21.3333H8C8.35362 21.3333 8.69276 21.4737 8.94281 21.7238C9.19286 21.9738 9.33333 22.313 9.33333 22.6666V25.3333C9.33333 25.6869 9.19286 26.026 8.94281 26.2761C8.69276 26.5261 8.35362 26.6666 8 26.6666H5.33333C4.97971 26.6666 4.64057 26.5261 4.39052 26.2761C4.14048 26.026 4 25.6869 4 25.3333V22.6666Z" fill="#1EC17A"/>
</svg>
