<svg width="32" height="32" viewBox="0 0 32 32" fill="none" xmlns="http://www.w3.org/2000/svg">
<path d="M21.3334 2.66675C17.6534 2.66675 14.6667 5.65341 14.6667 9.33342C14.6667 13.0134 17.6534 16.0001 21.3334 16.0001C25.0134 16.0001 28 13.0134 28 9.33342C28 5.65341 25.0134 2.66675 21.3334 2.66675ZM21.3334 13.3334C19.12 13.3334 17.3334 11.5467 17.3334 9.33342C17.3334 7.12008 19.12 5.33341 21.3334 5.33341C23.5467 5.33341 25.3334 7.12008 25.3334 9.33342C25.3334 11.5467 23.5467 13.3334 21.3334 13.3334ZM25.3334 21.3334H22.6667C22.6667 19.7334 21.6667 18.2934 20.1734 17.7334L11.96 14.6667H1.33337V29.3334H9.33337V27.4134L18.6667 30.0001L29.3334 26.6667V25.3334C29.3334 23.1201 27.5467 21.3334 25.3334 21.3334ZM6.66671 26.6667H4.00004V17.3334H6.66671V26.6667ZM18.6267 27.2134L9.33337 24.6667V17.3334H11.48L19.24 20.2267C19.6934 20.4001 20 20.8401 20 21.3334C20 21.3334 17.3334 21.2667 16.9334 21.1334L13.76 20.0801L12.92 22.6134L16.0934 23.6667C16.7734 23.8934 17.48 24.0001 18.2 24.0001H25.3334C25.8534 24.0001 26.32 24.3201 26.5334 24.7601L18.6267 27.2134Z" fill="#1EC17A"/>
</svg>
