<svg width="32" height="32" viewBox="0 0 32 32" fill="none" xmlns="http://www.w3.org/2000/svg">
<path d="M16 1.33325C9.33333 1.33325 4 6.66659 4 13.3333V22.6666C4 23.7275 4.42143 24.7449 5.17157 25.495C5.92172 26.2452 6.93913 26.6666 8 26.6666H12V15.9999H6.66667V13.3333C6.66667 10.8579 7.65 8.48393 9.40034 6.73359C11.1507 4.98325 13.5246 3.99992 16 3.99992C18.4754 3.99992 20.8493 4.98325 22.5997 6.73359C24.35 8.48393 25.3333 10.8579 25.3333 13.3333V15.9999H20V26.6666H25.3333V27.9999H16V30.6666H24C25.0609 30.6666 26.0783 30.2452 26.8284 29.495C27.5786 28.7449 28 27.7275 28 26.6666V13.3333C28 6.66659 22.6267 1.33325 16 1.33325Z" fill="#1EC17A"/>
</svg>
