<svg width="32" height="32" viewBox="0 0 32 32" fill="none" xmlns="http://www.w3.org/2000/svg">
<path d="M29.3333 16.5467V5.33341C29.3333 3.86675 28.1466 2.66675 26.6666 2.66675H5.33329C3.86663 2.66675 2.66663 3.85341 2.66663 5.33341V29.3334L7.99996 24.0001H12.3866C13.5333 27.8534 17.1066 30.6667 21.3333 30.6667C26.48 30.6667 30.6666 26.4934 30.6666 21.3334C30.6666 19.5867 30.1733 17.9467 29.3333 16.5467ZM6.89329 21.3334L5.33329 22.8934V5.33341H26.6666V13.6801C25.1466 12.6267 23.3333 12.0001 21.3333 12.0001C18.8 12.0001 16.4933 13.0267 14.8133 14.6667H7.99996V17.3334H12.92C12.3333 18.5467 12 19.9067 12 21.3334H6.89329ZM21.3333 27.8001C17.76 27.8001 14.8666 24.9067 14.8666 21.3334C14.8666 17.7601 17.76 14.8667 21.3333 14.8667C24.8933 14.8667 27.8 17.7601 27.8 21.3334C27.8 24.9067 24.8933 27.8001 21.3333 27.8001ZM24 12.0001H7.99996V9.33342H24V12.0001ZM22 21.0934L25.2533 22.9734L24.2533 24.7067L20 22.2534V17.3334H22V21.0934Z" fill="#1EC17A"/>
</svg>
