<svg width="32" height="32" viewBox="0 0 32 32" fill="none" xmlns="http://www.w3.org/2000/svg">
<path d="M19.3733 1.93335L17.9333 3.37335L20.0666 5.50668C20.36 5.84002 20.5066 6.22668 20.5066 6.66668C20.5066 7.10668 20.36 7.52002 20.0666 7.81335L15.3333 12.6267L16.6666 14.0667L21.5066 9.25335C22.2133 8.46668 22.56 7.60002 22.56 6.66668C22.56 5.73335 22.2133 4.85335 21.5066 4.06668L19.3733 1.93335ZM14.0666 4.62668L12.6266 6.06668L13.44 6.81335C13.7333 7.10668 13.88 7.50668 13.88 8.00002C13.88 8.49335 13.7333 8.89335 13.44 9.18668L12.6266 9.93335L14.0666 11.3734L14.8133 10.56C15.52 9.77335 15.88 8.92002 15.88 8.00002C15.88 7.04002 15.52 6.17335 14.8133 5.37335L14.0666 4.62668ZM28 6.74668C27.08 6.74668 26.2266 7.10668 25.44 7.81335L17.9333 15.3334L19.3733 16.6667L26.8133 9.25335C27.1466 8.92002 27.5466 8.74668 28 8.74668C28.4533 8.74668 28.8533 8.92002 29.1866 9.25335L30 10.0667L31.3733 8.62668L30.6266 7.81335C29.84 7.10668 28.96 6.74668 28 6.74668ZM9.33329 10.6667L2.66663 29.3333L21.3333 22.6667L9.33329 10.6667ZM25.3333 14.7467C24.4 14.7467 23.5466 15.1067 22.7466 15.8133L20.6266 17.9333L22.0666 19.3734L24.1866 17.2533C24.52 16.92 24.8933 16.7467 25.3333 16.7467C25.7733 16.7467 26.1733 16.92 26.5066 17.2533L28.6666 19.3734L30.0666 18L27.9333 15.8133C27.1466 15.1067 26.2666 14.7467 25.3333 14.7467Z" fill="#1EC17A"/>
</svg>
