<svg width="32" height="32" viewBox="0 0 32 32" fill="none" xmlns="http://www.w3.org/2000/svg">
<path d="M24 14.6667H19.76C19.2 13.1201 17.7333 12.0001 16 12.0001C14.2666 12.0001 12.8 13.1201 12.24 14.6667H7.99996C7.55996 14.6667 5.33329 14.5334 5.33329 12.0001V10.6667C5.33329 8.22675 7.38663 8.00008 7.99996 8.00008H21.5733C22.1333 9.54675 23.6 10.6667 25.3333 10.6667C26.3942 10.6667 27.4116 10.2453 28.1617 9.49517C28.9119 8.74503 29.3333 7.72761 29.3333 6.66675C29.3333 5.60588 28.9119 4.58847 28.1617 3.83832C27.4116 3.08818 26.3942 2.66675 25.3333 2.66675C23.6 2.66675 22.1333 3.78675 21.5733 5.33341H7.99996C5.85329 5.33341 2.66663 6.74675 2.66663 10.6667V12.0001C2.66663 15.9201 5.85329 17.3334 7.99996 17.3334H12.24C12.8 18.8801 14.2666 20.0001 16 20.0001C17.7333 20.0001 19.2 18.8801 19.76 17.3334H24C24.44 17.3334 26.6666 17.4667 26.6666 20.0001V21.3334C26.6666 23.7734 24.6133 24.0001 24 24.0001H10.4266C9.86663 22.4534 8.39996 21.3334 6.66663 21.3334C5.60576 21.3334 4.58834 21.7548 3.8382 22.505C3.08805 23.2551 2.66663 24.2725 2.66663 25.3334C2.66663 26.3943 3.08805 27.4117 3.8382 28.1618C4.58834 28.912 5.60576 29.3334 6.66663 29.3334C8.39996 29.3334 9.86663 28.2134 10.4266 26.6667H24C26.1466 26.6667 29.3333 25.2401 29.3333 21.3334V20.0001C29.3333 16.0934 26.1466 14.6667 24 14.6667ZM25.3333 5.33341C25.6869 5.33341 26.0261 5.47389 26.2761 5.72394C26.5261 5.97399 26.6666 6.31313 26.6666 6.66675C26.6666 7.02037 26.5261 7.35951 26.2761 7.60956C26.0261 7.8596 25.6869 8.00008 25.3333 8.00008C24.9797 8.00008 24.6405 7.8596 24.3905 7.60956C24.1404 7.35951 24 7.02037 24 6.66675C24 6.31313 24.1404 5.97399 24.3905 5.72394C24.6405 5.47389 24.9797 5.33341 25.3333 5.33341ZM6.66663 26.6667C6.313 26.6667 5.97387 26.5263 5.72382 26.2762C5.47377 26.0262 5.33329 25.687 5.33329 25.3334C5.33329 24.9798 5.47377 24.6407 5.72382 24.3906C5.97387 24.1406 6.313 24.0001 6.66663 24.0001C7.02025 24.0001 7.35939 24.1406 7.60943 24.3906C7.85948 24.6407 7.99996 24.9798 7.99996 25.3334C7.99996 25.687 7.85948 26.0262 7.60943 26.2762C7.35939 26.5263 7.02025 26.6667 6.66663 26.6667Z" fill="#1EC17A"/>
</svg>
